# xmcd
#
# Track frame offsets:
#	150
#	42768
#	74698
#	113442
#	142557
#
# Disc length: 2613 seconds
#
# Revision: 1
# Processed by: cddbd v1.5.2PL0 Copyright (c) Steve Scherf et al.
# Submitted via: audiograbber 1.82.01
#
DISCID=380a3305
DTITLE=Billy Goodman and Steve Kimock - 2008-05-28 Turning Point, Herrenwies CD2
DYEAR=2008
DGENRE=Folk-Rock
TTITLE0=A Hard Rain's A-Gonna Fall
TTITLE1=Cassidy
TTITLE2=Love Is The Test
TTITLE3=Kind Hearted Woman
TTITLE4=Willin'
EXTD=
EXTT0=
EXTT1=
EXTT2=
EXTT3=
EXTT4=
PLAYORDER=
